<?xml version="1.0" encoding="utf-8" standalone="no"?>
<!DOCTYPE svg PUBLIC "-//W3C//DTD SVG 1.1//EN"
  "http://www.w3.org/Graphics/SVG/1.1/DTD/svg11.dtd">
<!-- Created with matplotlib (http://matplotlib.org/) -->
<svg height="504pt" version="1.1" viewBox="0 0 864 504" width="864pt" xmlns="http://www.w3.org/2000/svg" xmlns:xlink="http://www.w3.org/1999/xlink">
 <defs>
  <style type="text/css">
*{stroke-linecap:butt;stroke-linejoin:round;}
  </style>
 </defs>
 <g id="figure_1">
  <g id="patch_1">
   <path d="M 0 504 
L 864 504 
L 864 0 
L 0 0 
z
" style="fill:#ffffff;"/>
  </g>
  <g id="axes_1">
   <g id="patch_2">
    <path d="M 0 504 
L 864 504 
L 864 0 
L 0 0 
z
" style="fill:#ffffff;"/>
   </g>
   <g id="patch_3">
    <path clip-path="url(#pd90dd21ab5)" d="M 276.48 277.151576 
L 293.76 270.064605 
L 311.04 262.780379 
L 328.32 255.293997 
L 345.6 247.600443 
L 362.88 239.694583 
L 380.16 231.571166 
L 397.44 223.224816 
L 414.72 214.65003 
L 432 205.841179 
L 449.28 196.792498 
L 449.28 300.854112 
L 432 306.790642 
L 414.72 312.572549 
L 397.44 318.203404 
L 380.16 323.686699 
L 362.88 329.025854 
L 345.6 334.224217 
L 328.32 339.285067 
L 311.04 344.211613 
L 293.76 349.006997 
L 276.48 353.674296 
z
" style="fill:#ffbf00;fill-opacity:0.2;stroke:#ffbf00;stroke-dasharray:7.4,3.2;stroke-dashoffset:0;stroke-linejoin:miter;stroke-opacity:0.8;stroke-width:2;"/>
   </g>
   <g id="patch_4">
    <path clip-path="url(#pd90dd21ab5)" d="M 103.68 352.160702 
L 120.96 347.257578 
L 138.24 342.214031 
L 155.52 337.026524 
L 172.8 331.691439 
L 190.08 326.205077 
L 207.36 320.563654 
L 224.64 314.763302 
L 241.92 308.800064 
L 259.2 302.669894 
L 276.48 296.368655 
L 276.48 372.661839 
L 259.2 376.624579 
L 241.92 380.481118 
L 224.64 384.233947 
L 207.36 387.885507 
L 190.08 391.438187 
L 172.8 394.894327 
L 155.52 398.256219 
L 138.24 401.526109 
L 120.96 404.706193 
L 103.68 407.798626 
z
" style="fill:#7f9fff;fill-opacity:0.2;stroke:#7f9fcc;stroke-dasharray:7.4,3.2;stroke-dashoffset:0;stroke-linejoin:miter;stroke-width:2;"/>
   </g>
   <g id="matplotlib.axis_1">
    <g id="xtick_1">
     <g id="line2d_1">
      <defs>
       <path d="M 0 0 
L 0 -3.5 
" id="m7425433f65" style="stroke:#da251d;stroke-width:0.8;"/>
      </defs>
      <g>
       <use style="fill:#da251d;stroke:#da251d;stroke-width:0.8;" x="345.6" xlink:href="#m7425433f65" y="504"/>
      </g>
     </g>
     <g id="text_1">
      <!-- 25 -->
      <defs>
       <path d="M 19.1875 8.296875 
L 53.609375 8.296875 
L 53.609375 0 
L 7.328125 0 
L 7.328125 8.296875 
Q 12.9375 14.109375 22.625 23.890625 
Q 32.328125 33.6875 34.8125 36.53125 
Q 39.546875 41.84375 41.421875 45.53125 
Q 43.3125 49.21875 43.3125 52.78125 
Q 43.3125 58.59375 39.234375 62.25 
Q 35.15625 65.921875 28.609375 65.921875 
Q 23.96875 65.921875 18.8125 64.3125 
Q 13.671875 62.703125 7.8125 59.421875 
L 7.8125 69.390625 
Q 13.765625 71.78125 18.9375 73 
Q 24.125 74.21875 28.421875 74.21875 
Q 39.75 74.21875 46.484375 68.546875 
Q 53.21875 62.890625 53.21875 53.421875 
Q 53.21875 48.921875 51.53125 44.890625 
Q 49.859375 40.875 45.40625 35.40625 
Q 44.1875 33.984375 37.640625 27.21875 
Q 31.109375 20.453125 19.1875 8.296875 
z
" id="DejaVuSans-32"/>
       <path d="M 10.796875 72.90625 
L 49.515625 72.90625 
L 49.515625 64.59375 
L 19.828125 64.59375 
L 19.828125 46.734375 
Q 21.96875 47.46875 24.109375 47.828125 
Q 26.265625 48.1875 28.421875 48.1875 
Q 40.625 48.1875 47.75 41.5 
Q 54.890625 34.8125 54.890625 23.390625 
Q 54.890625 11.625 47.5625 5.09375 
Q 40.234375 -1.421875 26.90625 -1.421875 
Q 22.3125 -1.421875 17.546875 -0.640625 
Q 12.796875 0.140625 7.71875 1.703125 
L 7.71875 11.625 
Q 12.109375 9.234375 16.796875 8.0625 
Q 21.484375 6.890625 26.703125 6.890625 
Q 35.15625 6.890625 40.078125 11.328125 
Q 45.015625 15.765625 45.015625 23.390625 
Q 45.015625 31 40.078125 35.4375 
Q 35.15625 39.890625 26.703125 39.890625 
Q 22.75 39.890625 18.8125 39.015625 
Q 14.890625 38.140625 10.796875 36.28125 
z
" id="DejaVuSans-35"/>
      </defs>
      <g style="fill:#da251d;" transform="translate(339.2375 491.598437)scale(0.1 -0.1)">
       <use xlink:href="#DejaVuSans-32"/>
       <use x="63.623047" xlink:href="#DejaVuSans-35"/>
      </g>
     </g>
    </g>
    <g id="xtick_2">
     <g id="line2d_2">
      <g>
       <use style="fill:#da251d;stroke:#da251d;stroke-width:0.8;" x="691.2" xlink:href="#m7425433f65" y="504"/>
      </g>
     </g>
     <g id="text_2">
      <!-- 35 -->
      <defs>
       <path d="M 40.578125 39.3125 
Q 47.65625 37.796875 51.625 33 
Q 55.609375 28.21875 55.609375 21.1875 
Q 55.609375 10.40625 48.1875 4.484375 
Q 40.765625 -1.421875 27.09375 -1.421875 
Q 22.515625 -1.421875 17.65625 -0.515625 
Q 12.796875 0.390625 7.625 2.203125 
L 7.625 11.71875 
Q 11.71875 9.328125 16.59375 8.109375 
Q 21.484375 6.890625 26.8125 6.890625 
Q 36.078125 6.890625 40.9375 10.546875 
Q 45.796875 14.203125 45.796875 21.1875 
Q 45.796875 27.640625 41.28125 31.265625 
Q 36.765625 34.90625 28.71875 34.90625 
L 20.21875 34.90625 
L 20.21875 43.015625 
L 29.109375 43.015625 
Q 36.375 43.015625 40.234375 45.921875 
Q 44.09375 48.828125 44.09375 54.296875 
Q 44.09375 59.90625 40.109375 62.90625 
Q 36.140625 65.921875 28.71875 65.921875 
Q 24.65625 65.921875 20.015625 65.03125 
Q 15.375 64.15625 9.8125 62.3125 
L 9.8125 71.09375 
Q 15.4375 72.65625 20.34375 73.4375 
Q 25.25 74.21875 29.59375 74.21875 
Q 40.828125 74.21875 47.359375 69.109375 
Q 53.90625 64.015625 53.90625 55.328125 
Q 53.90625 49.265625 50.4375 45.09375 
Q 46.96875 40.921875 40.578125 39.3125 
z
" id="DejaVuSans-33"/>
      </defs>
      <g style="fill:#da251d;" transform="translate(684.8375 491.598437)scale(0.1 -0.1)">
       <use xlink:href="#DejaVuSans-33"/>
       <use x="63.623047" xlink:href="#DejaVuSans-35"/>
      </g>
     </g>
    </g>
   </g>
   <g id="matplotlib.axis_2">
    <g id="ytick_1">
     <g id="line2d_3">
      <defs>
       <path d="M 0 0 
L -3.5 0 
" id="m0f8fd70b0e" style="stroke:#002060;stroke-width:0.8;"/>
      </defs>
      <g>
       <use style="fill:#002060;stroke:#002060;stroke-width:0.8;" x="864" xlink:href="#m0f8fd70b0e" y="403.2"/>
      </g>
     </g>
     <g id="text_3">
      <!-- 5 -->
      <g style="fill:#002060;" transform="translate(844 406.999219)scale(0.1 -0.1)">
       <use xlink:href="#DejaVuSans-35"/>
      </g>
     </g>
    </g>
    <g id="ytick_2">
     <g id="line2d_4">
      <g>
       <use style="fill:#002060;stroke:#002060;stroke-width:0.8;" x="864" xlink:href="#m0f8fd70b0e" y="302.4"/>
      </g>
     </g>
     <g id="text_4">
      <!-- 10 -->
      <defs>
       <path d="M 12.40625 8.296875 
L 28.515625 8.296875 
L 28.515625 63.921875 
L 10.984375 60.40625 
L 10.984375 69.390625 
L 28.421875 72.90625 
L 38.28125 72.90625 
L 38.28125 8.296875 
L 54.390625 8.296875 
L 54.390625 0 
L 12.40625 0 
z
" id="DejaVuSans-31"/>
       <path d="M 31.78125 66.40625 
Q 24.171875 66.40625 20.328125 58.90625 
Q 16.5 51.421875 16.5 36.375 
Q 16.5 21.390625 20.328125 13.890625 
Q 24.171875 6.390625 31.78125 6.390625 
Q 39.453125 6.390625 43.28125 13.890625 
Q 47.125 21.390625 47.125 36.375 
Q 47.125 51.421875 43.28125 58.90625 
Q 39.453125 66.40625 31.78125 66.40625 
z
M 31.78125 74.21875 
Q 44.046875 74.21875 50.515625 64.515625 
Q 56.984375 54.828125 56.984375 36.375 
Q 56.984375 17.96875 50.515625 8.265625 
Q 44.046875 -1.421875 31.78125 -1.421875 
Q 19.53125 -1.421875 13.0625 8.265625 
Q 6.59375 17.96875 6.59375 36.375 
Q 6.59375 54.828125 13.0625 64.515625 
Q 19.53125 74.21875 31.78125 74.21875 
z
" id="DejaVuSans-30"/>
      </defs>
      <g style="fill:#002060;" transform="translate(844 306.199219)scale(0.1 -0.1)">
       <use xlink:href="#DejaVuSans-31"/>
       <use x="63.623047" xlink:href="#DejaVuSans-30"/>
      </g>
     </g>
    </g>
    <g id="ytick_3">
     <g id="line2d_5">
      <g>
       <use style="fill:#002060;stroke:#002060;stroke-width:0.8;" x="864" xlink:href="#m0f8fd70b0e" y="201.6"/>
      </g>
     </g>
     <g id="text_5">
      <!-- 15 -->
      <g style="fill:#002060;" transform="translate(844 205.399219)scale(0.1 -0.1)">
       <use xlink:href="#DejaVuSans-31"/>
       <use x="63.623047" xlink:href="#DejaVuSans-35"/>
      </g>
     </g>
    </g>
    <g id="ytick_4">
     <g id="line2d_6">
      <g>
       <use style="fill:#002060;stroke:#002060;stroke-width:0.8;" x="864" xlink:href="#m0f8fd70b0e" y="100.8"/>
      </g>
     </g>
     <g id="text_6">
      <!-- 20 -->
      <g style="fill:#002060;" transform="translate(844 104.599219)scale(0.1 -0.1)">
       <use xlink:href="#DejaVuSans-32"/>
       <use x="63.623047" xlink:href="#DejaVuSans-30"/>
      </g>
     </g>
    </g>
   </g>
   <g id="line2d_7">
    <path clip-path="url(#pd90dd21ab5)" d="M 0 504 
L 0 274.55382 
" style="fill:none;opacity:0.7;stroke:#da251d;stroke-dasharray:0.75,1.2375;stroke-dashoffset:0;stroke-width:0.75;"/>
   </g>
   <g id="line2d_8">
    <path clip-path="url(#pd90dd21ab5)" d="M 172.8 504 
L 172.8 187.247726 
" style="fill:none;opacity:0.7;stroke:#da251d;stroke-dasharray:0.75,1.2375;stroke-dashoffset:0;stroke-width:0.75;"/>
   </g>
   <g id="line2d_9">
    <path clip-path="url(#pd90dd21ab5)" d="M 345.6 504 
L 345.6 71.00542 
" style="fill:none;opacity:0.7;stroke:#da251d;stroke-dasharray:0.75,1.2375;stroke-dashoffset:0;stroke-width:0.75;"/>
   </g>
   <g id="line2d_10">
    <path clip-path="url(#pd90dd21ab5)" d="M 518.4 504 
L 518.4 -1 
" style="fill:none;opacity:0.7;stroke:#da251d;stroke-dasharray:0.75,1.2375;stroke-dashoffset:0;stroke-width:0.75;"/>
   </g>
   <g id="line2d_11">
    <path clip-path="url(#pd90dd21ab5)" d="M 691.2 504 
L 691.2 -1 
" style="fill:none;opacity:0.7;stroke:#da251d;stroke-dasharray:0.75,1.2375;stroke-dashoffset:0;stroke-width:0.75;"/>
   </g>
   <g id="line2d_12">
    <path clip-path="url(#pd90dd21ab5)" d="M -1 403.2 
L 864 403.2 
" style="fill:none;opacity:0.7;stroke:#002060;stroke-dasharray:0.75,1.2375;stroke-dashoffset:0;stroke-width:0.75;"/>
   </g>
   <g id="line2d_13">
    <path clip-path="url(#pd90dd21ab5)" d="M -1 302.4 
L 864 302.4 
" style="fill:none;opacity:0.7;stroke:#002060;stroke-dasharray:0.75,1.2375;stroke-dashoffset:0;stroke-width:0.75;"/>
   </g>
   <g id="line2d_14">
    <path clip-path="url(#pd90dd21ab5)" d="M 148.649873 201.6 
L 864 201.6 
" style="fill:none;opacity:0.7;stroke:#002060;stroke-dasharray:0.75,1.2375;stroke-dashoffset:0;stroke-width:0.75;"/>
   </g>
   <g id="line2d_15">
    <path clip-path="url(#pd90dd21ab5)" d="M 305.8339 100.8 
L 864 100.8 
" style="fill:none;opacity:0.7;stroke:#002060;stroke-dasharray:0.75,1.2375;stroke-dashoffset:0;stroke-width:0.75;"/>
   </g>
   <g id="line2d_16">
    <path clip-path="url(#pd90dd21ab5)" d="M 431.46592 0 
L 864 0 
" style="fill:none;opacity:0.7;stroke:#002060;stroke-dasharray:0.75,1.2375;stroke-dashoffset:0;stroke-width:0.75;"/>
   </g>
   <g id="line2d_17">
    <path clip-path="url(#pd90dd21ab5)" d="M 100.282534 226.985578 
L 323.842534 504 
" style="fill:none;opacity:0.7;stroke:#008056;stroke-linecap:square;"/>
   </g>
   <g id="line2d_18">
    <path clip-path="url(#pd90dd21ab5)" d="M 392.303936 33.550353 
L 780.833936 504 
" style="fill:none;opacity:0.7;stroke:#008056;stroke-linecap:square;"/>
   </g>
   <g id="line2d_19">
    <path clip-path="url(#pd90dd21ab5)" d="M 0 458.76703 
L 17.28 457.284202 
L 34.56 455.75866 
L 51.84 454.189352 
L 69.12 452.5752 
L 86.4 450.915107 
L 103.68 449.207955 
L 120.96 447.4526 
L 138.24 445.647876 
L 155.52 443.792596 
L 172.8 441.885545 
L 190.08 439.925487 
L 207.36 437.911159 
L 224.64 435.841276 
L 241.92 433.714524 
L 259.2 431.529565 
L 276.48 429.285035 
L 293.76 426.979541 
L 311.04 424.611666 
L 328.32 422.179962 
L 345.6 419.682954 
L 362.88 417.11914 
L 380.16 414.486987 
L 397.44 411.784932 
L 414.72 409.011384 
L 432 406.164718 
L 449.28 403.243281 
L 466.56 400.245386 
L 483.84 397.169315 
L 501.12 394.013317 
L 518.4 390.775607 
L 535.68 387.454366 
L 552.96 384.047741 
L 570.24 380.553843 
L 587.52 376.970748 
L 604.8 373.296495 
L 622.08 369.529085 
L 639.36 365.666483 
L 656.64 361.706614 
L 673.92 357.647365 
L 691.2 353.486582 
L 708.48 349.222071 
L 725.76 344.851595 
L 743.04 340.372879 
L 760.32 335.783599 
L 777.6 331.081393 
L 794.88 326.263852 
L 812.16 321.328519 
L 829.44 316.272896 
L 846.72 311.094434 
L 864 305.790537 
" style="fill:none;opacity:0.7;stroke:#007fff;stroke-linecap:square;stroke-width:2;"/>
   </g>
   <g id="line2d_20">
    <path clip-path="url(#pd90dd21ab5)" d="M 0 413.206518 
L 17.28 410.218993 
L 34.56 407.144672 
L 51.84 403.981365 
L 69.12 400.726837 
L 86.4 397.378804 
L 103.68 393.934933 
L 120.96 390.392839 
L 138.24 386.750087 
L 155.52 383.004189 
L 172.8 379.152604 
L 190.08 375.192735 
L 207.36 371.12193 
L 224.64 366.937481 
L 241.92 362.63662 
L 259.2 358.21652 
L 276.48 353.674296 
L 293.76 349.006997 
L 311.04 344.211613 
L 328.32 339.285067 
L 345.6 334.224217 
L 362.88 329.025854 
L 380.16 323.686699 
L 397.44 318.203404 
L 414.72 312.572549 
L 432 306.790642 
L 449.28 300.854112 
L 466.56 294.759317 
L 483.84 288.502533 
L 501.12 282.079956 
L 518.4 275.487701 
L 535.68 268.7218 
L 552.96 261.778198 
L 570.24 254.652753 
L 587.52 247.341233 
L 604.8 239.839313 
L 622.08 232.142576 
L 639.36 224.246508 
L 656.64 216.146495 
L 673.92 207.837824 
L 691.2 199.315677 
L 708.48 190.57513 
L 725.76 181.611152 
L 743.04 172.418597 
L 760.32 162.992209 
L 777.6 153.326612 
L 794.88 143.416309 
L 812.16 133.255683 
L 829.44 122.838988 
L 846.72 112.160349 
L 864 101.213755 
" style="fill:none;opacity:0.7;stroke:#007fff;stroke-linecap:square;stroke-width:2;"/>
   </g>
   <g id="line2d_21">
    <path clip-path="url(#pd90dd21ab5)" d="M 0 367.314893 
L 17.28 362.800439 
L 34.56 358.153699 
L 51.84 353.371266 
L 69.12 348.449656 
L 86.4 343.385307 
L 103.68 338.174572 
L 120.96 332.813722 
L 138.24 327.298942 
L 155.52 321.62633 
L 172.8 315.791894 
L 190.08 309.79155 
L 207.36 303.62112 
L 224.64 297.276331 
L 241.92 290.75281 
L 259.2 284.046084 
L 276.48 277.151576 
L 293.76 270.064605 
L 311.04 262.780379 
L 328.32 255.293997 
L 345.6 247.600443 
L 362.88 239.694583 
L 380.16 231.571166 
L 397.44 223.224816 
L 414.72 214.65003 
L 432 205.841179 
L 449.28 196.792498 
L 466.56 187.498088 
L 483.84 177.951907 
L 501.12 168.147773 
L 518.4 158.079353 
L 535.68 147.740165 
L 552.96 137.123568 
L 570.24 126.222764 
L 587.52 115.030788 
L 604.8 103.540506 
L 622.08 91.744611 
L 639.36 79.635613 
L 656.64 67.205841 
L 673.92 54.447433 
L 691.2 41.352329 
L 708.48 27.912271 
L 725.76 14.118791 
L 743.04 -0.036793 
L 744.185776 -1 
" style="fill:none;opacity:0.7;stroke:#007fff;stroke-linecap:square;stroke-width:2;"/>
   </g>
   <g id="line2d_22">
    <path clip-path="url(#pd90dd21ab5)" d="M 0 321.088533 
L 17.28 315.024545 
L 34.56 308.78134 
L 51.84 302.354205 
L 69.12 295.738317 
L 86.4 288.928735 
L 103.68 281.920399 
L 120.96 274.708126 
L 138.24 267.286606 
L 155.52 259.650402 
L 172.8 251.793943 
L 190.08 243.711523 
L 207.36 235.397295 
L 224.64 226.845269 
L 241.92 218.049309 
L 259.2 209.003126 
L 276.48 199.700276 
L 293.76 190.134156 
L 311.04 180.297997 
L 328.32 170.184863 
L 345.6 159.787643 
L 362.88 149.099048 
L 380.16 138.111603 
L 397.44 126.817647 
L 414.72 115.209322 
L 432 103.278569 
L 449.28 91.017124 
L 466.56 78.416508 
L 483.84 65.468023 
L 501.12 52.162746 
L 518.4 38.491519 
L 535.68 24.444944 
L 552.96 10.013375 
L 565.795905 -1 
" style="fill:none;opacity:0.7;stroke:#007fff;stroke-linecap:square;stroke-width:2;"/>
   </g>
   <g id="line2d_23">
    <path clip-path="url(#pd90dd21ab5)" style="fill:none;opacity:0.7;stroke:#7fdfff;stroke-linecap:square;"/>
   </g>
   <g id="line2d_24">
    <path clip-path="url(#pd90dd21ab5)" style="fill:none;opacity:0.7;stroke:#7fdfff;stroke-linecap:square;"/>
   </g>
   <g id="line2d_25">
    <path clip-path="url(#pd90dd21ab5)" style="fill:none;opacity:0.7;stroke:#7fdfff;stroke-linecap:square;"/>
   </g>
   <g id="line2d_26">
    <path clip-path="url(#pd90dd21ab5)" d="M -1 467.680629 
L 159.735407 505 
" style="fill:none;opacity:0.7;stroke:#7fdfff;stroke-linecap:square;"/>
   </g>
   <g id="line2d_27">
    <path clip-path="url(#pd90dd21ab5)" d="M -1 380.016808 
L 530.577236 505 
" style="fill:none;opacity:0.7;stroke:#7fdfff;stroke-linecap:square;"/>
   </g>
   <g id="line2d_28">
    <path clip-path="url(#pd90dd21ab5)" d="M 0 274.55382 
L 864 480.591863 
" style="fill:none;opacity:0.7;stroke:#7fdfff;stroke-linecap:square;"/>
   </g>
   <g id="line2d_29">
    <path clip-path="url(#pd90dd21ab5)" d="M 172.8 187.247726 
L 864 354.766181 
" style="fill:none;opacity:0.7;stroke:#7fdfff;stroke-linecap:square;"/>
   </g>
   <g id="line2d_30">
    <path clip-path="url(#pd90dd21ab5)" d="M 345.6 71.00542 
L 864 199.021184 
" style="fill:none;opacity:0.7;stroke:#7fdfff;stroke-linecap:square;"/>
   </g>
   <g id="line2d_31">
    <path clip-path="url(#pd90dd21ab5)" d="M 842.625427 -1 
L 864 4.395662 
" style="fill:none;opacity:0.7;stroke:#7fdfff;stroke-linecap:square;"/>
   </g>
   <g id="line2d_32">
    <path clip-path="url(#pd90dd21ab5)" d="M 0 274.523761 
L 17.28 266.887257 
L 34.56 259.023124 
L 51.84 250.925254 
L 69.12 242.587387 
L 86.4 234.003105 
L 103.68 225.165825 
L 120.96 216.068796 
L 138.24 206.705096 
L 155.52 197.067622 
L 172.8 187.149091 
L 190.08 176.942031 
L 207.36 166.438777 
L 224.64 155.631463 
L 241.92 144.512018 
L 259.2 133.072161 
L 276.48 121.303391 
L 293.76 109.196984 
L 311.04 96.743982 
L 328.32 83.935191 
L 345.6 70.761168 
L 362.88 57.212217 
L 380.16 43.278379 
L 397.44 28.949424 
L 414.72 14.214842 
L 432 -0.936166 
L 432.070806 -1 
" style="fill:none;stroke:#da251d;stroke-linecap:square;stroke-width:5;"/>
   </g>
   <g id="line2d_33">
    <path clip-path="url(#pd90dd21ab5)" d="M 34.56 504 
L 34.56 259.061943 
" style="fill:none;stroke:#002060;stroke-dasharray:2,3.3;stroke-dashoffset:0;stroke-width:2;"/>
   </g>
   <g id="line2d_34">
    <path clip-path="url(#pd90dd21ab5)" d="M 276.48 504 
L 276.48 121.478527 
" style="fill:none;stroke:#799c13;stroke-dasharray:2,3.3;stroke-dashoffset:0;stroke-width:2;"/>
   </g>
   <g id="line2d_35">
    <path clip-path="url(#pd90dd21ab5)" d="M 518.4 -1 
L 518.4 504 
" style="fill:none;stroke:#ff003f;stroke-dasharray:2,3.3;stroke-dashoffset:0;stroke-width:2;"/>
   </g>
   <g id="line2d_36">
    <path clip-path="url(#pd90dd21ab5)" d="M 584.064 458.191549 
L 487.296 353.044912 
" style="fill:none;opacity:0.7;stroke:#921b51;stroke-dasharray:12.8,3.2,2,3.2;stroke-dashoffset:0;stroke-linecap:round;stroke-width:2;"/>
   </g>
   <g id="line2d_37">
    <path clip-path="url(#pd90dd21ab5)" d="M 584.064 458.191549 
L 487.296 353.044912 
" style="fill:none;opacity:0.15;stroke:#921b51;stroke-linecap:round;stroke-width:50;"/>
   </g>
   <g id="line2d_38">
    <path clip-path="url(#pd90dd21ab5)" d="M 584.064 458.191549 
L 459.648 297.426654 
" style="fill:none;opacity:0.8;stroke:#da251d;stroke-dasharray:2,3.3;stroke-dashoffset:0;stroke-linecap:round;stroke-width:2;"/>
   </g>
   <g id="line2d_39">
    <path clip-path="url(#pd90dd21ab5)" d="M 584.064 458.191549 
L 459.648 297.426654 
" style="fill:none;opacity:0.15;stroke:#da251d;stroke-linecap:round;stroke-width:50;"/>
   </g>
   <g id="line2d_40">
    <path clip-path="url(#pd90dd21ab5)" d="M 487.296 254.622114 
" style="fill:none;opacity:0.7;"/>
    <defs>
     <path d="M 0 5 
C 1.326016 5 2.597899 4.473168 3.535534 3.535534 
C 4.473168 2.597899 5 1.326016 5 0 
C 5 -1.326016 4.473168 -2.597899 3.535534 -3.535534 
C 2.597899 -4.473168 1.326016 -5 0 -5 
C -1.326016 -5 -2.597899 -4.473168 -3.535534 -3.535534 
C -4.473168 -2.597899 -5 -1.326016 -5 0 
C -5 1.326016 -4.473168 2.597899 -3.535534 3.535534 
C -2.597899 4.473168 -1.326016 5 0 5 
z
" id="mbea6adbdfc" style="stroke:#7570b3;"/>
    </defs>
    <g clip-path="url(#pd90dd21ab5)">
     <use style="fill:#7570b3;opacity:0.7;stroke:#7570b3;" x="487.296" xlink:href="#mbea6adbdfc" y="254.622114"/>
    </g>
   </g>
   <g id="line2d_41">
    <path clip-path="url(#pd90dd21ab5)" d="M 487.296 353.044912 
" style="fill:none;opacity:0.5;"/>
    <defs>
     <path d="M -0 7.071068 
L 4.242641 0 
L -0 -7.071068 
L -4.242641 -0 
z
" id="mef2a4dea30" style="stroke:#921b51;stroke-linejoin:miter;"/>
    </defs>
    <g clip-path="url(#pd90dd21ab5)">
     <use style="fill:#921b51;opacity:0.5;stroke:#921b51;stroke-linejoin:miter;" x="487.296" xlink:href="#mef2a4dea30" y="353.044912"/>
    </g>
   </g>
   <g id="line2d_42">
    <path clip-path="url(#pd90dd21ab5)" d="M 584.064 458.191549 
" style="fill:none;opacity:0.8;"/>
    <defs>
     <path d="M -3.75 7.5 
L 0 3.75 
L 3.75 7.5 
L 7.5 3.75 
L 3.75 0 
L 7.5 -3.75 
L 3.75 -7.5 
L 0 -3.75 
L -3.75 -7.5 
L -7.5 -3.75 
L -3.75 0 
L -7.5 3.75 
z
" id="m4c0a4d3882" style="stroke:#da0147;stroke-linejoin:miter;"/>
    </defs>
    <g clip-path="url(#pd90dd21ab5)">
     <use style="fill:#da0147;opacity:0.8;stroke:#da0147;stroke-linejoin:miter;" x="584.064" xlink:href="#m4c0a4d3882" y="458.191549"/>
    </g>
   </g>
   <g id="line2d_43">
    <path clip-path="url(#pd90dd21ab5)" d="M 476.5824 294.991414 
" style="fill:none;opacity:0.7;"/>
    <defs>
     <path d="M 0 5 
C 1.326016 5 2.597899 4.473168 3.535534 3.535534 
C 4.473168 2.597899 5 1.326016 5 0 
C 5 -1.326016 4.473168 -2.597899 3.535534 -3.535534 
C 2.597899 -4.473168 1.326016 -5 0 -5 
C -1.326016 -5 -2.597899 -4.473168 -3.535534 -3.535534 
C -4.473168 -2.597899 -5 -1.326016 -5 0 
C -5 1.326016 -4.473168 2.597899 -3.535534 3.535534 
C -2.597899 4.473168 -1.326016 5 0 5 
z
" id="m6727aeaf9f" style="stroke:#d95f02;"/>
    </defs>
    <g clip-path="url(#pd90dd21ab5)">
     <use style="fill:#d95f02;opacity:0.7;stroke:#d95f02;" x="476.5824" xlink:href="#m6727aeaf9f" y="294.991414"/>
    </g>
   </g>
   <g id="line2d_44">
    <path clip-path="url(#pd90dd21ab5)" d="M 463.104 299.74342 
" style="fill:none;opacity:0.7;"/>
    <defs>
     <path d="M 0 5 
C 1.326016 5 2.597899 4.473168 3.535534 3.535534 
C 4.473168 2.597899 5 1.326016 5 0 
C 5 -1.326016 4.473168 -2.597899 3.535534 -3.535534 
C 2.597899 -4.473168 1.326016 -5 0 -5 
C -1.326016 -5 -2.597899 -4.473168 -3.535534 -3.535534 
C -4.473168 -2.597899 -5 -1.326016 -5 0 
C -5 1.326016 -4.473168 2.597899 -3.535534 3.535534 
C -2.597899 4.473168 -1.326016 5 0 5 
z
" id="m459dccb123" style="stroke:#e7298a;"/>
    </defs>
    <g clip-path="url(#pd90dd21ab5)">
     <use style="fill:#e7298a;opacity:0.7;stroke:#e7298a;" x="463.104" xlink:href="#m459dccb123" y="299.74342"/>
    </g>
   </g>
   <g id="line2d_45">
    <path clip-path="url(#pd90dd21ab5)" d="M 435.456 316.43848 
" style="fill:none;opacity:0.7;"/>
    <defs>
     <path d="M 0 5 
C 1.326016 5 2.597899 4.473168 3.535534 3.535534 
C 4.473168 2.597899 5 1.326016 5 0 
C 5 -1.326016 4.473168 -2.597899 3.535534 -3.535534 
C 2.597899 -4.473168 1.326016 -5 0 -5 
C -1.326016 -5 -2.597899 -4.473168 -3.535534 -3.535534 
C -4.473168 -2.597899 -5 -1.326016 -5 0 
C -5 1.326016 -4.473168 2.597899 -3.535534 3.535534 
C -2.597899 4.473168 -1.326016 5 0 5 
z
" id="ma33fbe7544" style="stroke:#1b9e77;"/>
    </defs>
    <g clip-path="url(#pd90dd21ab5)">
     <use style="fill:#1b9e77;opacity:0.7;stroke:#1b9e77;" x="435.456" xlink:href="#ma33fbe7544" y="316.43848"/>
    </g>
   </g>
   <g id="line2d_46">
    <path clip-path="url(#pd90dd21ab5)" d="M 435.456 318.198568 
" style="fill:none;opacity:0.7;"/>
    <defs>
     <path d="M 0 5 
C 1.326016 5 2.597899 4.473168 3.535534 3.535534 
C 4.473168 2.597899 5 1.326016 5 0 
C 5 -1.326016 4.473168 -2.597899 3.535534 -3.535534 
C 2.597899 -4.473168 1.326016 -5 0 -5 
C -1.326016 -5 -2.597899 -4.473168 -3.535534 -3.535534 
C -4.473168 -2.597899 -5 -1.326016 -5 0 
C -5 1.326016 -4.473168 2.597899 -3.535534 3.535534 
C -2.597899 4.473168 -1.326016 5 0 5 
z
" id="mf46eb02473" style="stroke:#66a61e;"/>
    </defs>
    <g clip-path="url(#pd90dd21ab5)">
     <use style="fill:#66a61e;opacity:0.7;stroke:#66a61e;" x="435.456" xlink:href="#mf46eb02473" y="318.198568"/>
    </g>
   </g>
   <g id="line2d_47">
    <path clip-path="url(#pd90dd21ab5)" d="M 459.648 297.426654 
" style="fill:none;opacity:0.8;"/>
    <defs>
     <path d="M 0 -12.5 
L -2.806425 -3.862712 
L -11.888206 -3.862712 
L -4.540891 1.475425 
L -7.347316 10.112712 
L -0 4.774575 
L 7.347316 10.112712 
L 4.540891 1.475425 
L 11.888206 -3.862712 
L 2.806425 -3.862712 
z
" id="m0ea8cd234b" style="stroke:#008056;stroke-linejoin:bevel;"/>
    </defs>
    <g clip-path="url(#pd90dd21ab5)">
     <use style="fill:#008056;opacity:0.8;stroke:#008056;stroke-linejoin:bevel;" x="459.648" xlink:href="#m0ea8cd234b" y="297.426654"/>
    </g>
   </g>
   <g id="patch_5">
    <path d="M 864 504 
L 864 0 
" style="fill:none;stroke:#002060;stroke-linecap:square;stroke-linejoin:miter;stroke-width:2;"/>
   </g>
   <g id="patch_6">
    <path d="M 0 504 
L 864 504 
" style="fill:none;stroke:#da251d;stroke-linecap:square;stroke-linejoin:miter;stroke-width:2;"/>
   </g>
   <g id="text_7">
    <!-- RH 20 % -->
    <defs>
     <path d="M 44.390625 34.1875 
Q 47.5625 33.109375 50.5625 29.59375 
Q 53.5625 26.078125 56.59375 19.921875 
L 66.609375 0 
L 56 0 
L 46.6875 18.703125 
Q 43.0625 26.03125 39.671875 28.421875 
Q 36.28125 30.8125 30.421875 30.8125 
L 19.671875 30.8125 
L 19.671875 0 
L 9.8125 0 
L 9.8125 72.90625 
L 32.078125 72.90625 
Q 44.578125 72.90625 50.734375 67.671875 
Q 56.890625 62.453125 56.890625 51.90625 
Q 56.890625 45.015625 53.6875 40.46875 
Q 50.484375 35.9375 44.390625 34.1875 
z
M 19.671875 64.796875 
L 19.671875 38.921875 
L 32.078125 38.921875 
Q 39.203125 38.921875 42.84375 42.21875 
Q 46.484375 45.515625 46.484375 51.90625 
Q 46.484375 58.296875 42.84375 61.546875 
Q 39.203125 64.796875 32.078125 64.796875 
z
" id="DejaVuSans-52"/>
     <path d="M 9.8125 72.90625 
L 19.671875 72.90625 
L 19.671875 43.015625 
L 55.515625 43.015625 
L 55.515625 72.90625 
L 65.375 72.90625 
L 65.375 0 
L 55.515625 0 
L 55.515625 34.71875 
L 19.671875 34.71875 
L 19.671875 0 
L 9.8125 0 
z
" id="DejaVuSans-48"/>
     <path id="DejaVuSans-20"/>
     <path d="M 72.703125 32.078125 
Q 68.453125 32.078125 66.03125 28.46875 
Q 63.625 24.859375 63.625 18.40625 
Q 63.625 12.0625 66.03125 8.421875 
Q 68.453125 4.78125 72.703125 4.78125 
Q 76.859375 4.78125 79.265625 8.421875 
Q 81.6875 12.0625 81.6875 18.40625 
Q 81.6875 24.8125 79.265625 28.4375 
Q 76.859375 32.078125 72.703125 32.078125 
z
M 72.703125 38.28125 
Q 80.421875 38.28125 84.953125 32.90625 
Q 89.5 27.546875 89.5 18.40625 
Q 89.5 9.28125 84.9375 3.921875 
Q 80.375 -1.421875 72.703125 -1.421875 
Q 64.890625 -1.421875 60.34375 3.921875 
Q 55.8125 9.28125 55.8125 18.40625 
Q 55.8125 27.59375 60.375 32.9375 
Q 64.9375 38.28125 72.703125 38.28125 
z
M 22.3125 68.015625 
Q 18.109375 68.015625 15.6875 64.375 
Q 13.28125 60.75 13.28125 54.390625 
Q 13.28125 47.953125 15.671875 44.328125 
Q 18.0625 40.71875 22.3125 40.71875 
Q 26.5625 40.71875 28.96875 44.328125 
Q 31.390625 47.953125 31.390625 54.390625 
Q 31.390625 60.6875 28.953125 64.34375 
Q 26.515625 68.015625 22.3125 68.015625 
z
M 66.40625 74.21875 
L 74.21875 74.21875 
L 28.609375 -1.421875 
L 20.796875 -1.421875 
z
M 22.3125 74.21875 
Q 30.03125 74.21875 34.609375 68.875 
Q 39.203125 63.53125 39.203125 54.390625 
Q 39.203125 45.171875 34.640625 39.84375 
Q 30.078125 34.515625 22.3125 34.515625 
Q 14.546875 34.515625 10.03125 39.859375 
Q 5.515625 45.21875 5.515625 54.390625 
Q 5.515625 63.484375 10.046875 68.84375 
Q 14.59375 74.21875 22.3125 74.21875 
z
" id="DejaVuSans-25"/>
    </defs>
    <g style="fill:#005fbf;" transform="translate(669.802936 356.625056)rotate(-13.862951)scale(0.1 -0.1)">
     <use xlink:href="#DejaVuSans-52"/>
     <use x="69.482422" xlink:href="#DejaVuSans-48"/>
     <use x="144.677734" xlink:href="#DejaVuSans-20"/>
     <use x="176.464844" xlink:href="#DejaVuSans-32"/>
     <use x="240.087891" xlink:href="#DejaVuSans-30"/>
     <use x="303.710938" xlink:href="#DejaVuSans-20"/>
     <use x="335.498047" xlink:href="#DejaVuSans-25"/>
    </g>
   </g>
   <g id="text_8">
    <!-- RH 40 % -->
    <defs>
     <path d="M 37.796875 64.3125 
L 12.890625 25.390625 
L 37.796875 25.390625 
z
M 35.203125 72.90625 
L 47.609375 72.90625 
L 47.609375 25.390625 
L 58.015625 25.390625 
L 58.015625 17.1875 
L 47.609375 17.1875 
L 47.609375 0 
L 37.796875 0 
L 37.796875 17.1875 
L 4.890625 17.1875 
L 4.890625 26.703125 
z
" id="DejaVuSans-34"/>
    </defs>
    <g style="fill:#005fbf;" transform="translate(671.052977 207.175819)rotate(-26.831138)scale(0.1 -0.1)">
     <use xlink:href="#DejaVuSans-52"/>
     <use x="69.482422" xlink:href="#DejaVuSans-48"/>
     <use x="144.677734" xlink:href="#DejaVuSans-20"/>
     <use x="176.464844" xlink:href="#DejaVuSans-34"/>
     <use x="240.087891" xlink:href="#DejaVuSans-30"/>
     <use x="303.710938" xlink:href="#DejaVuSans-20"/>
     <use x="335.498047" xlink:href="#DejaVuSans-25"/>
    </g>
   </g>
   <g id="text_9">
    <!-- RH 60 % -->
    <defs>
     <path d="M 33.015625 40.375 
Q 26.375 40.375 22.484375 35.828125 
Q 18.609375 31.296875 18.609375 23.390625 
Q 18.609375 15.53125 22.484375 10.953125 
Q 26.375 6.390625 33.015625 6.390625 
Q 39.65625 6.390625 43.53125 10.953125 
Q 47.40625 15.53125 47.40625 23.390625 
Q 47.40625 31.296875 43.53125 35.828125 
Q 39.65625 40.375 33.015625 40.375 
z
M 52.59375 71.296875 
L 52.59375 62.3125 
Q 48.875 64.0625 45.09375 64.984375 
Q 41.3125 65.921875 37.59375 65.921875 
Q 27.828125 65.921875 22.671875 59.328125 
Q 17.53125 52.734375 16.796875 39.40625 
Q 19.671875 43.65625 24.015625 45.921875 
Q 28.375 48.1875 33.59375 48.1875 
Q 44.578125 48.1875 50.953125 41.515625 
Q 57.328125 34.859375 57.328125 23.390625 
Q 57.328125 12.15625 50.6875 5.359375 
Q 44.046875 -1.421875 33.015625 -1.421875 
Q 20.359375 -1.421875 13.671875 8.265625 
Q 6.984375 17.96875 6.984375 36.375 
Q 6.984375 53.65625 15.1875 63.9375 
Q 23.390625 74.21875 37.203125 74.21875 
Q 40.921875 74.21875 44.703125 73.484375 
Q 48.484375 72.75 52.59375 71.296875 
z
" id="DejaVuSans-36"/>
    </defs>
    <g style="fill:#005fbf;" transform="translate(672.931796 52.926313)rotate(-37.875104)scale(0.1 -0.1)">
     <use xlink:href="#DejaVuSans-52"/>
     <use x="69.482422" xlink:href="#DejaVuSans-48"/>
     <use x="144.677734" xlink:href="#DejaVuSans-20"/>
     <use x="176.464844" xlink:href="#DejaVuSans-36"/>
     <use x="240.087891" xlink:href="#DejaVuSans-30"/>
     <use x="303.710938" xlink:href="#DejaVuSans-20"/>
     <use x="335.498047" xlink:href="#DejaVuSans-25"/>
    </g>
   </g>
   <g id="text_10">
    <!-- 10 °C -->
    <defs>
     <path d="M 25 67.921875 
Q 21.09375 67.921875 18.40625 65.203125 
Q 15.71875 62.5 15.71875 58.59375 
Q 15.71875 54.734375 18.40625 52.078125 
Q 21.09375 49.421875 25 49.421875 
Q 28.90625 49.421875 31.59375 52.078125 
Q 34.28125 54.734375 34.28125 58.59375 
Q 34.28125 62.453125 31.5625 65.1875 
Q 28.859375 67.921875 25 67.921875 
z
M 25 74.21875 
Q 28.125 74.21875 31 73.015625 
Q 33.890625 71.828125 35.984375 69.578125 
Q 38.234375 67.390625 39.359375 64.59375 
Q 40.484375 61.8125 40.484375 58.59375 
Q 40.484375 52.15625 35.96875 47.6875 
Q 31.453125 43.21875 24.90625 43.21875 
Q 18.3125 43.21875 13.90625 47.609375 
Q 9.515625 52 9.515625 58.59375 
Q 9.515625 65.140625 14 69.671875 
Q 18.5 74.21875 25 74.21875 
z
" id="DejaVuSans-b0"/>
     <path d="M 64.40625 67.28125 
L 64.40625 56.890625 
Q 59.421875 61.53125 53.78125 63.8125 
Q 48.140625 66.109375 41.796875 66.109375 
Q 29.296875 66.109375 22.65625 58.46875 
Q 16.015625 50.828125 16.015625 36.375 
Q 16.015625 21.96875 22.65625 14.328125 
Q 29.296875 6.6875 41.796875 6.6875 
Q 48.140625 6.6875 53.78125 8.984375 
Q 59.421875 11.28125 64.40625 15.921875 
L 64.40625 5.609375 
Q 59.234375 2.09375 53.4375 0.328125 
Q 47.65625 -1.421875 41.21875 -1.421875 
Q 24.65625 -1.421875 15.125 8.703125 
Q 5.609375 18.84375 5.609375 36.375 
Q 5.609375 53.953125 15.125 64.078125 
Q 24.65625 74.21875 41.21875 74.21875 
Q 47.75 74.21875 53.53125 72.484375 
Q 59.328125 70.75 64.40625 67.28125 
z
" id="DejaVuSans-43"/>
    </defs>
    <g style="fill:#5fa7bf;" transform="translate(43.675992 388.384525)rotate(-346.769061)scale(0.1 -0.1)">
     <use xlink:href="#DejaVuSans-31"/>
     <use x="63.623047" xlink:href="#DejaVuSans-30"/>
     <use x="127.246094" xlink:href="#DejaVuSans-20"/>
     <use x="159.033203" xlink:href="#DejaVuSans-b0"/>
     <use x="209.033203" xlink:href="#DejaVuSans-43"/>
    </g>
   </g>
   <g id="text_11">
    <!-- 15 °C -->
    <g style="fill:#5fa7bf;" transform="translate(43.682416 282.83276)rotate(-346.587186)scale(0.1 -0.1)">
     <use xlink:href="#DejaVuSans-31"/>
     <use x="63.623047" xlink:href="#DejaVuSans-35"/>
     <use x="127.246094" xlink:href="#DejaVuSans-20"/>
     <use x="159.033203" xlink:href="#DejaVuSans-b0"/>
     <use x="209.033203" xlink:href="#DejaVuSans-43"/>
    </g>
   </g>
   <g id="text_12">
    <!-- 20 °C -->
    <g style="fill:#5fa7bf;" transform="translate(216.48985 195.696455)rotate(-346.376543)scale(0.1 -0.1)">
     <use xlink:href="#DejaVuSans-32"/>
     <use x="63.623047" xlink:href="#DejaVuSans-30"/>
     <use x="127.246094" xlink:href="#DejaVuSans-20"/>
     <use x="159.033203" xlink:href="#DejaVuSans-b0"/>
     <use x="209.033203" xlink:href="#DejaVuSans-43"/>
    </g>
   </g>
   <g id="text_13">
    <!-- 25 °C -->
    <g style="fill:#5fa7bf;" transform="translate(389.298589 79.654363)rotate(-346.128671)scale(0.1 -0.1)">
     <use xlink:href="#DejaVuSans-32"/>
     <use x="63.623047" xlink:href="#DejaVuSans-35"/>
     <use x="127.246094" xlink:href="#DejaVuSans-20"/>
     <use x="159.033203" xlink:href="#DejaVuSans-b0"/>
     <use x="209.033203" xlink:href="#DejaVuSans-43"/>
    </g>
   </g>
   <g id="text_14">
    <g id="patch_7">
     <path d="M 337.664375 284.072459 
L 388.095625 284.072459 
L 388.095625 266.394334 
L 337.664375 266.394334 
z
" style="fill:#ffffff;fill-opacity:0.4;stroke:#ffffff;stroke-linejoin:miter;stroke-opacity:0.4;"/>
    </g>
    <!-- Summer -->
    <defs>
     <path d="M 53.515625 70.515625 
L 53.515625 60.890625 
Q 47.90625 63.578125 42.921875 64.890625 
Q 37.9375 66.21875 33.296875 66.21875 
Q 25.25 66.21875 20.875 63.09375 
Q 16.5 59.96875 16.5 54.203125 
Q 16.5 49.359375 19.40625 46.890625 
Q 22.3125 44.4375 30.421875 42.921875 
L 36.375 41.703125 
Q 47.40625 39.59375 52.65625 34.296875 
Q 57.90625 29 57.90625 20.125 
Q 57.90625 9.515625 50.796875 4.046875 
Q 43.703125 -1.421875 29.984375 -1.421875 
Q 24.8125 -1.421875 18.96875 -0.25 
Q 13.140625 0.921875 6.890625 3.21875 
L 6.890625 13.375 
Q 12.890625 10.015625 18.65625 8.296875 
Q 24.421875 6.59375 29.984375 6.59375 
Q 38.421875 6.59375 43.015625 9.90625 
Q 47.609375 13.234375 47.609375 19.390625 
Q 47.609375 24.75 44.3125 27.78125 
Q 41.015625 30.8125 33.5 32.328125 
L 27.484375 33.5 
Q 16.453125 35.6875 11.515625 40.375 
Q 6.59375 45.0625 6.59375 53.421875 
Q 6.59375 63.09375 13.40625 68.65625 
Q 20.21875 74.21875 32.171875 74.21875 
Q 37.3125 74.21875 42.625 73.28125 
Q 47.953125 72.359375 53.515625 70.515625 
z
" id="DejaVuSans-53"/>
     <path d="M 8.5 21.578125 
L 8.5 54.6875 
L 17.484375 54.6875 
L 17.484375 21.921875 
Q 17.484375 14.15625 20.5 10.265625 
Q 23.53125 6.390625 29.59375 6.390625 
Q 36.859375 6.390625 41.078125 11.03125 
Q 45.3125 15.671875 45.3125 23.6875 
L 45.3125 54.6875 
L 54.296875 54.6875 
L 54.296875 0 
L 45.3125 0 
L 45.3125 8.40625 
Q 42.046875 3.421875 37.71875 1 
Q 33.40625 -1.421875 27.6875 -1.421875 
Q 18.265625 -1.421875 13.375 4.4375 
Q 8.5 10.296875 8.5 21.578125 
z
M 31.109375 56 
z
" id="DejaVuSans-75"/>
     <path d="M 52 44.1875 
Q 55.375 50.25 60.0625 53.125 
Q 64.75 56 71.09375 56 
Q 79.640625 56 84.28125 50.015625 
Q 88.921875 44.046875 88.921875 33.015625 
L 88.921875 0 
L 79.890625 0 
L 79.890625 32.71875 
Q 79.890625 40.578125 77.09375 44.375 
Q 74.3125 48.1875 68.609375 48.1875 
Q 61.625 48.1875 57.5625 43.546875 
Q 53.515625 38.921875 53.515625 30.90625 
L 53.515625 0 
L 44.484375 0 
L 44.484375 32.71875 
Q 44.484375 40.625 41.703125 44.40625 
Q 38.921875 48.1875 33.109375 48.1875 
Q 26.21875 48.1875 22.15625 43.53125 
Q 18.109375 38.875 18.109375 30.90625 
L 18.109375 0 
L 9.078125 0 
L 9.078125 54.6875 
L 18.109375 54.6875 
L 18.109375 46.1875 
Q 21.1875 51.21875 25.484375 53.609375 
Q 29.78125 56 35.6875 56 
Q 41.65625 56 45.828125 52.96875 
Q 50 49.953125 52 44.1875 
z
" id="DejaVuSans-6d"/>
     <path d="M 56.203125 29.59375 
L 56.203125 25.203125 
L 14.890625 25.203125 
Q 15.484375 15.921875 20.484375 11.0625 
Q 25.484375 6.203125 34.421875 6.203125 
Q 39.59375 6.203125 44.453125 7.46875 
Q 49.3125 8.734375 54.109375 11.28125 
L 54.109375 2.78125 
Q 49.265625 0.734375 44.1875 -0.34375 
Q 39.109375 -1.421875 33.890625 -1.421875 
Q 20.796875 -1.421875 13.15625 6.1875 
Q 5.515625 13.8125 5.515625 26.8125 
Q 5.515625 40.234375 12.765625 48.109375 
Q 20.015625 56 32.328125 56 
Q 43.359375 56 49.78125 48.890625 
Q 56.203125 41.796875 56.203125 29.59375 
z
M 47.21875 32.234375 
Q 47.125 39.59375 43.09375 43.984375 
Q 39.0625 48.390625 32.421875 48.390625 
Q 24.90625 48.390625 20.390625 44.140625 
Q 15.875 39.890625 15.1875 32.171875 
z
" id="DejaVuSans-65"/>
     <path d="M 41.109375 46.296875 
Q 39.59375 47.171875 37.8125 47.578125 
Q 36.03125 48 33.890625 48 
Q 26.265625 48 22.1875 43.046875 
Q 18.109375 38.09375 18.109375 28.8125 
L 18.109375 0 
L 9.078125 0 
L 9.078125 54.6875 
L 18.109375 54.6875 
L 18.109375 46.1875 
Q 20.953125 51.171875 25.484375 53.578125 
Q 30.03125 56 36.53125 56 
Q 37.453125 56 38.578125 55.875 
Q 39.703125 55.765625 41.0625 55.515625 
z
" id="DejaVuSans-72"/>
    </defs>
    <g style="fill:#bf8f00;" transform="translate(341.664375 277.992772)scale(0.1 -0.1)">
     <use xlink:href="#DejaVuSans-53"/>
     <use x="63.476562" xlink:href="#DejaVuSans-75"/>
     <use x="126.855469" xlink:href="#DejaVuSans-6d"/>
     <use x="224.267578" xlink:href="#DejaVuSans-6d"/>
     <use x="321.679688" xlink:href="#DejaVuSans-65"/>
     <use x="383.203125" xlink:href="#DejaVuSans-72"/>
    </g>
   </g>
   <g id="text_15">
    <g id="patch_8">
     <path d="M 169.487813 360.922703 
L 210.672188 360.922703 
L 210.672188 343.244578 
L 169.487813 343.244578 
z
" style="fill:#ffffff;fill-opacity:0.4;stroke:#ffffff;stroke-linejoin:miter;stroke-opacity:0.4;"/>
    </g>
    <!-- Winter -->
    <defs>
     <path d="M 3.328125 72.90625 
L 13.28125 72.90625 
L 28.609375 11.28125 
L 43.890625 72.90625 
L 54.984375 72.90625 
L 70.3125 11.28125 
L 85.59375 72.90625 
L 95.609375 72.90625 
L 77.296875 0 
L 64.890625 0 
L 49.515625 63.28125 
L 33.984375 0 
L 21.578125 0 
z
" id="DejaVuSans-57"/>
     <path d="M 9.421875 54.6875 
L 18.40625 54.6875 
L 18.40625 0 
L 9.421875 0 
z
M 9.421875 75.984375 
L 18.40625 75.984375 
L 18.40625 64.59375 
L 9.421875 64.59375 
z
" id="DejaVuSans-69"/>
     <path d="M 54.890625 33.015625 
L 54.890625 0 
L 45.90625 0 
L 45.90625 32.71875 
Q 45.90625 40.484375 42.875 44.328125 
Q 39.84375 48.1875 33.796875 48.1875 
Q 26.515625 48.1875 22.3125 43.546875 
Q 18.109375 38.921875 18.109375 30.90625 
L 18.109375 0 
L 9.078125 0 
L 9.078125 54.6875 
L 18.109375 54.6875 
L 18.109375 46.1875 
Q 21.34375 51.125 25.703125 53.5625 
Q 30.078125 56 35.796875 56 
Q 45.21875 56 50.046875 50.171875 
Q 54.890625 44.34375 54.890625 33.015625 
z
" id="DejaVuSans-6e"/>
     <path d="M 18.3125 70.21875 
L 18.3125 54.6875 
L 36.8125 54.6875 
L 36.8125 47.703125 
L 18.3125 47.703125 
L 18.3125 18.015625 
Q 18.3125 11.328125 20.140625 9.421875 
Q 21.96875 7.515625 27.59375 7.515625 
L 36.8125 7.515625 
L 36.8125 0 
L 27.59375 0 
Q 17.1875 0 13.234375 3.875 
Q 9.28125 7.765625 9.28125 18.015625 
L 9.28125 47.703125 
L 2.6875 47.703125 
L 2.6875 54.6875 
L 9.28125 54.6875 
L 9.28125 70.21875 
z
" id="DejaVuSans-74"/>
    </defs>
    <g style="fill:#5f7799;" transform="translate(173.487813 354.843015)scale(0.1 -0.1)">
     <use xlink:href="#DejaVuSans-57"/>
     <use x="98.845703" xlink:href="#DejaVuSans-69"/>
     <use x="126.628906" xlink:href="#DejaVuSans-6e"/>
     <use x="190.007812" xlink:href="#DejaVuSans-74"/>
     <use x="229.216797" xlink:href="#DejaVuSans-65"/>
     <use x="290.740234" xlink:href="#DejaVuSans-72"/>
    </g>
   </g>
   <g id="text_16">
    <!--  TOO COLD, 16°C -->
    <defs>
     <path d="M -0.296875 72.90625 
L 61.375 72.90625 
L 61.375 64.59375 
L 35.5 64.59375 
L 35.5 0 
L 25.59375 0 
L 25.59375 64.59375 
L -0.296875 64.59375 
z
" id="DejaVuSans-54"/>
     <path d="M 39.40625 66.21875 
Q 28.65625 66.21875 22.328125 58.203125 
Q 16.015625 50.203125 16.015625 36.375 
Q 16.015625 22.609375 22.328125 14.59375 
Q 28.65625 6.59375 39.40625 6.59375 
Q 50.140625 6.59375 56.421875 14.59375 
Q 62.703125 22.609375 62.703125 36.375 
Q 62.703125 50.203125 56.421875 58.203125 
Q 50.140625 66.21875 39.40625 66.21875 
z
M 39.40625 74.21875 
Q 54.734375 74.21875 63.90625 63.9375 
Q 73.09375 53.65625 73.09375 36.375 
Q 73.09375 19.140625 63.90625 8.859375 
Q 54.734375 -1.421875 39.40625 -1.421875 
Q 24.03125 -1.421875 14.8125 8.828125 
Q 5.609375 19.09375 5.609375 36.375 
Q 5.609375 53.65625 14.8125 63.9375 
Q 24.03125 74.21875 39.40625 74.21875 
z
" id="DejaVuSans-4f"/>
     <path d="M 9.8125 72.90625 
L 19.671875 72.90625 
L 19.671875 8.296875 
L 55.171875 8.296875 
L 55.171875 0 
L 9.8125 0 
z
" id="DejaVuSans-4c"/>
     <path d="M 19.671875 64.796875 
L 19.671875 8.109375 
L 31.59375 8.109375 
Q 46.6875 8.109375 53.6875 14.9375 
Q 60.6875 21.78125 60.6875 36.53125 
Q 60.6875 51.171875 53.6875 57.984375 
Q 46.6875 64.796875 31.59375 64.796875 
z
M 9.8125 72.90625 
L 30.078125 72.90625 
Q 51.265625 72.90625 61.171875 64.09375 
Q 71.09375 55.28125 71.09375 36.53125 
Q 71.09375 17.671875 61.125 8.828125 
Q 51.171875 0 30.078125 0 
L 9.8125 0 
z
" id="DejaVuSans-44"/>
     <path d="M 11.71875 12.40625 
L 22.015625 12.40625 
L 22.015625 4 
L 14.015625 -11.625 
L 7.71875 -11.625 
L 11.71875 4 
z
" id="DejaVuSans-2c"/>
    </defs>
    <g style="fill:#001848;" transform="translate(31.648438 504)rotate(-90)scale(0.14 -0.14)">
     <use xlink:href="#DejaVuSans-20"/>
     <use x="31.787109" xlink:href="#DejaVuSans-54"/>
     <use x="92.871094" xlink:href="#DejaVuSans-4f"/>
     <use x="171.582031" xlink:href="#DejaVuSans-4f"/>
     <use x="250.292969" xlink:href="#DejaVuSans-20"/>
     <use x="282.080078" xlink:href="#DejaVuSans-43"/>
     <use x="351.904297" xlink:href="#DejaVuSans-4f"/>
     <use x="430.615234" xlink:href="#DejaVuSans-4c"/>
     <use x="486.328125" xlink:href="#DejaVuSans-44"/>
     <use x="563.330078" xlink:href="#DejaVuSans-2c"/>
     <use x="595.117188" xlink:href="#DejaVuSans-20"/>
     <use x="626.904297" xlink:href="#DejaVuSans-31"/>
     <use x="690.527344" xlink:href="#DejaVuSans-36"/>
     <use x="754.150391" xlink:href="#DejaVuSans-b0"/>
     <use x="804.150391" xlink:href="#DejaVuSans-43"/>
    </g>
   </g>
   <g id="text_17">
    <!-- TOO HOT, 30°C  -->
    <g style="fill:#bf002f;" transform="translate(521.311563 390.919375)rotate(-270)scale(0.14 -0.14)">
     <use xlink:href="#DejaVuSans-54"/>
     <use x="61.083984" xlink:href="#DejaVuSans-4f"/>
     <use x="139.794922" xlink:href="#DejaVuSans-4f"/>
     <use x="218.505859" xlink:href="#DejaVuSans-20"/>
     <use x="250.292969" xlink:href="#DejaVuSans-48"/>
     <use x="325.488281" xlink:href="#DejaVuSans-4f"/>
     <use x="404.199219" xlink:href="#DejaVuSans-54"/>
     <use x="465.283203" xlink:href="#DejaVuSans-2c"/>
     <use x="497.070312" xlink:href="#DejaVuSans-20"/>
     <use x="528.857422" xlink:href="#DejaVuSans-33"/>
     <use x="592.480469" xlink:href="#DejaVuSans-30"/>
     <use x="656.103516" xlink:href="#DejaVuSans-b0"/>
     <use x="706.103516" xlink:href="#DejaVuSans-43"/>
     <use x="775.927734" xlink:href="#DejaVuSans-20"/>
    </g>
   </g>
   <g id="patch_9">
    <path d="M 484.839964 255.079095 
Q 447.000001 297.398149 409.160038 339.717202 
L 409.160038 339.717202 
Q 448.104877 298.412668 487.049716 257.108133 
z
" style="fill:#7570b3;fill-opacity:0.6;"/>
   </g>
   <g id="patch_10">
    <path d="M 485.545227 351.258151 
Q 310.980963 325.181754 136.416698 299.105357 
L 136.416698 299.105357 
Q 310.75305 326.664338 485.089401 354.223319 
z
" style="fill:#921b51;fill-opacity:0.6;"/>
   </g>
   <g id="patch_11">
    <path d="M 582.319382 456.397817 
Q 478.769947 440.823805 375.220512 425.249792 
L 375.220512 425.249792 
Q 478.536235 442.305486 581.851958 459.36118 
z
" style="fill:#da0147;fill-opacity:0.6;"/>
   </g>
   <g id="patch_12">
    <path d="M 474.084907 295.026584 
Q 456.425032 309.631451 438.765158 324.236319 
L 438.765158 324.236319 
Q 457.342645 310.818037 475.920133 297.399756 
z
" style="fill:#d95f02;fill-opacity:0.6;"/>
   </g>
   <g id="patch_13">
    <path d="M 460.718239 300.481102 
Q 453.85811 311.236948 446.997981 321.992793 
L 446.997981 321.992793 
Q 455.073168 312.116512 463.148355 302.240231 
z
" style="fill:#e7298a;fill-opacity:0.6;"/>
   </g>
   <g id="patch_14">
    <path d="M 432.977004 316.129728 
Q 410.891511 329.64367 388.806019 343.157611 
L 388.806019 343.157611 
Q 411.637023 330.945288 434.468028 318.732965 
z
" style="fill:#1b9e77;fill-opacity:0.6;"/>
   </g>
   <g id="patch_15">
    <path d="M 432.963731 318.028207 
Q 412.584042 332.153301 392.204352 346.278394 
L 392.204352 346.278394 
Q 413.400834 333.411414 434.597316 320.544434 
z
" style="fill:#66a61e;fill-opacity:0.6;"/>
   </g>
   <g id="patch_16">
    <path d="M 457.151861 297.582695 
Q 436.178384 316.436492 415.204907 335.290289 
L 415.204907 335.290289 
Q 437.151153 317.578297 459.0974 299.866306 
z
" style="fill:#008056;fill-opacity:0.6;"/>
   </g>
   <g id="legend_1">
    <g id="line2d_48">
     <path d="M 7.2 10.47875 
L 23.2 10.47875 
" style="fill:none;opacity:0.7;"/>
    </g>
    <g id="line2d_49">
     <defs>
      <path d="M 0 3.5 
C 0.928211 3.5 1.81853 3.131218 2.474874 2.474874 
C 3.131218 1.81853 3.5 0.928211 3.5 0 
C 3.5 -0.928211 3.131218 -1.81853 2.474874 -2.474874 
C 1.81853 -3.131218 0.928211 -3.5 0 -3.5 
C -0.928211 -3.5 -1.81853 -3.131218 -2.474874 -2.474874 
C -3.131218 -1.81853 -3.5 -0.928211 -3.5 0 
C -3.5 0.928211 -3.131218 1.81853 -2.474874 2.474874 
C -1.81853 3.131218 -0.928211 3.5 0 3.5 
z
" id="m1903b6a60e" style="stroke:#7570b3;"/>
     </defs>
     <g>
      <use style="fill:#7570b3;opacity:0.7;stroke:#7570b3;" x="15.2" xlink:href="#m1903b6a60e" y="10.47875"/>
     </g>
    </g>
    <g id="text_18">
     <!-- Estudio -->
     <defs>
      <path d="M 9.8125 72.90625 
L 55.90625 72.90625 
L 55.90625 64.59375 
L 19.671875 64.59375 
L 19.671875 43.015625 
L 54.390625 43.015625 
L 54.390625 34.71875 
L 19.671875 34.71875 
L 19.671875 8.296875 
L 56.78125 8.296875 
L 56.78125 0 
L 9.8125 0 
z
" id="DejaVuSans-45"/>
      <path d="M 44.28125 53.078125 
L 44.28125 44.578125 
Q 40.484375 46.53125 36.375 47.5 
Q 32.28125 48.484375 27.875 48.484375 
Q 21.1875 48.484375 17.84375 46.4375 
Q 14.5 44.390625 14.5 40.28125 
Q 14.5 37.15625 16.890625 35.375 
Q 19.28125 33.59375 26.515625 31.984375 
L 29.59375 31.296875 
Q 39.15625 29.25 43.1875 25.515625 
Q 47.21875 21.78125 47.21875 15.09375 
Q 47.21875 7.46875 41.1875 3.015625 
Q 35.15625 -1.421875 24.609375 -1.421875 
Q 20.21875 -1.421875 15.453125 -0.5625 
Q 10.6875 0.296875 5.421875 2 
L 5.421875 11.28125 
Q 10.40625 8.6875 15.234375 7.390625 
Q 20.0625 6.109375 24.8125 6.109375 
Q 31.15625 6.109375 34.5625 8.28125 
Q 37.984375 10.453125 37.984375 14.40625 
Q 37.984375 18.0625 35.515625 20.015625 
Q 33.0625 21.96875 24.703125 23.78125 
L 21.578125 24.515625 
Q 13.234375 26.265625 9.515625 29.90625 
Q 5.8125 33.546875 5.8125 39.890625 
Q 5.8125 47.609375 11.28125 51.796875 
Q 16.75 56 26.8125 56 
Q 31.78125 56 36.171875 55.265625 
Q 40.578125 54.546875 44.28125 53.078125 
z
" id="DejaVuSans-73"/>
      <path d="M 45.40625 46.390625 
L 45.40625 75.984375 
L 54.390625 75.984375 
L 54.390625 0 
L 45.40625 0 
L 45.40625 8.203125 
Q 42.578125 3.328125 38.25 0.953125 
Q 33.9375 -1.421875 27.875 -1.421875 
Q 17.96875 -1.421875 11.734375 6.484375 
Q 5.515625 14.40625 5.515625 27.296875 
Q 5.515625 40.1875 11.734375 48.09375 
Q 17.96875 56 27.875 56 
Q 33.9375 56 38.25 53.625 
Q 42.578125 51.265625 45.40625 46.390625 
z
M 14.796875 27.296875 
Q 14.796875 17.390625 18.875 11.75 
Q 22.953125 6.109375 30.078125 6.109375 
Q 37.203125 6.109375 41.296875 11.75 
Q 45.40625 17.390625 45.40625 27.296875 
Q 45.40625 37.203125 41.296875 42.84375 
Q 37.203125 48.484375 30.078125 48.484375 
Q 22.953125 48.484375 18.875 42.84375 
Q 14.796875 37.203125 14.796875 27.296875 
z
" id="DejaVuSans-64"/>
      <path d="M 30.609375 48.390625 
Q 23.390625 48.390625 19.1875 42.75 
Q 14.984375 37.109375 14.984375 27.296875 
Q 14.984375 17.484375 19.15625 11.84375 
Q 23.34375 6.203125 30.609375 6.203125 
Q 37.796875 6.203125 41.984375 11.859375 
Q 46.1875 17.53125 46.1875 27.296875 
Q 46.1875 37.015625 41.984375 42.703125 
Q 37.796875 48.390625 30.609375 48.390625 
z
M 30.609375 56 
Q 42.328125 56 49.015625 48.375 
Q 55.71875 40.765625 55.71875 27.296875 
Q 55.71875 13.875 49.015625 6.21875 
Q 42.328125 -1.421875 30.609375 -1.421875 
Q 18.84375 -1.421875 12.171875 6.21875 
Q 5.515625 13.875 5.515625 27.296875 
Q 5.515625 40.765625 12.171875 48.375 
Q 18.84375 56 30.609375 56 
z
" id="DejaVuSans-6f"/>
     </defs>
     <g transform="translate(29.6 13.27875)scale(0.08 -0.08)">
      <use xlink:href="#DejaVuSans-45"/>
      <use x="63.183594" xlink:href="#DejaVuSans-73"/>
      <use x="115.283203" xlink:href="#DejaVuSans-74"/>
      <use x="154.492188" xlink:href="#DejaVuSans-75"/>
      <use x="217.871094" xlink:href="#DejaVuSans-64"/>
      <use x="281.347656" xlink:href="#DejaVuSans-69"/>
      <use x="309.130859" xlink:href="#DejaVuSans-6f"/>
     </g>
    </g>
    <g id="line2d_50">
     <path d="M 7.2 24.62125 
L 23.2 24.62125 
" style="fill:none;opacity:0.5;"/>
    </g>
    <g id="line2d_51">
     <defs>
      <path d="M -0 4.949747 
L 2.969848 0 
L 0 -4.949747 
L -2.969848 -0 
z
" id="m97a0124448" style="stroke:#921b51;stroke-linejoin:miter;"/>
     </defs>
     <g>
      <use style="fill:#921b51;opacity:0.5;stroke:#921b51;stroke-linejoin:miter;" x="15.2" xlink:href="#m97a0124448" y="24.62125"/>
     </g>
    </g>
    <g id="text_19">
     <!-- Weather service -->
     <defs>
      <path d="M 34.28125 27.484375 
Q 23.390625 27.484375 19.1875 25 
Q 14.984375 22.515625 14.984375 16.5 
Q 14.984375 11.71875 18.140625 8.90625 
Q 21.296875 6.109375 26.703125 6.109375 
Q 34.1875 6.109375 38.703125 11.40625 
Q 43.21875 16.703125 43.21875 25.484375 
L 43.21875 27.484375 
z
M 52.203125 31.203125 
L 52.203125 0 
L 43.21875 0 
L 43.21875 8.296875 
Q 40.140625 3.328125 35.546875 0.953125 
Q 30.953125 -1.421875 24.3125 -1.421875 
Q 15.921875 -1.421875 10.953125 3.296875 
Q 6 8.015625 6 15.921875 
Q 6 25.140625 12.171875 29.828125 
Q 18.359375 34.515625 30.609375 34.515625 
L 43.21875 34.515625 
L 43.21875 35.40625 
Q 43.21875 41.609375 39.140625 45 
Q 35.0625 48.390625 27.6875 48.390625 
Q 23 48.390625 18.546875 47.265625 
Q 14.109375 46.140625 10.015625 43.890625 
L 10.015625 52.203125 
Q 14.9375 54.109375 19.578125 55.046875 
Q 24.21875 56 28.609375 56 
Q 40.484375 56 46.34375 49.84375 
Q 52.203125 43.703125 52.203125 31.203125 
z
" id="DejaVuSans-61"/>
      <path d="M 54.890625 33.015625 
L 54.890625 0 
L 45.90625 0 
L 45.90625 32.71875 
Q 45.90625 40.484375 42.875 44.328125 
Q 39.84375 48.1875 33.796875 48.1875 
Q 26.515625 48.1875 22.3125 43.546875 
Q 18.109375 38.921875 18.109375 30.90625 
L 18.109375 0 
L 9.078125 0 
L 9.078125 75.984375 
L 18.109375 75.984375 
L 18.109375 46.1875 
Q 21.34375 51.125 25.703125 53.5625 
Q 30.078125 56 35.796875 56 
Q 45.21875 56 50.046875 50.171875 
Q 54.890625 44.34375 54.890625 33.015625 
z
" id="DejaVuSans-68"/>
      <path d="M 2.984375 54.6875 
L 12.5 54.6875 
L 29.59375 8.796875 
L 46.6875 54.6875 
L 56.203125 54.6875 
L 35.6875 0 
L 23.484375 0 
z
" id="DejaVuSans-76"/>
      <path d="M 48.78125 52.59375 
L 48.78125 44.1875 
Q 44.96875 46.296875 41.140625 47.34375 
Q 37.3125 48.390625 33.40625 48.390625 
Q 24.65625 48.390625 19.8125 42.84375 
Q 14.984375 37.3125 14.984375 27.296875 
Q 14.984375 17.28125 19.8125 11.734375 
Q 24.65625 6.203125 33.40625 6.203125 
Q 37.3125 6.203125 41.140625 7.25 
Q 44.96875 8.296875 48.78125 10.40625 
L 48.78125 2.09375 
Q 45.015625 0.34375 40.984375 -0.53125 
Q 36.96875 -1.421875 32.421875 -1.421875 
Q 20.0625 -1.421875 12.78125 6.34375 
Q 5.515625 14.109375 5.515625 27.296875 
Q 5.515625 40.671875 12.859375 48.328125 
Q 20.21875 56 33.015625 56 
Q 37.15625 56 41.109375 55.140625 
Q 45.0625 54.296875 48.78125 52.59375 
z
" id="DejaVuSans-63"/>
     </defs>
     <g transform="translate(29.6 27.42125)scale(0.08 -0.08)">
      <use xlink:href="#DejaVuSans-57"/>
      <use x="98.798828" xlink:href="#DejaVuSans-65"/>
      <use x="160.322266" xlink:href="#DejaVuSans-61"/>
      <use x="221.601562" xlink:href="#DejaVuSans-74"/>
      <use x="260.810547" xlink:href="#DejaVuSans-68"/>
      <use x="324.189453" xlink:href="#DejaVuSans-65"/>
      <use x="385.712891" xlink:href="#DejaVuSans-72"/>
      <use x="426.826172" xlink:href="#DejaVuSans-20"/>
      <use x="458.613281" xlink:href="#DejaVuSans-73"/>
      <use x="510.712891" xlink:href="#DejaVuSans-65"/>
      <use x="572.236328" xlink:href="#DejaVuSans-72"/>
      <use x="613.349609" xlink:href="#DejaVuSans-76"/>
      <use x="672.529297" xlink:href="#DejaVuSans-69"/>
      <use x="700.3125" xlink:href="#DejaVuSans-63"/>
      <use x="755.292969" xlink:href="#DejaVuSans-65"/>
     </g>
    </g>
    <g id="line2d_52">
     <path d="M 7.2 38.76375 
L 23.2 38.76375 
" style="fill:none;opacity:0.8;"/>
    </g>
    <g id="line2d_53">
     <defs>
      <path d="M -2.625 5.25 
L 0 2.625 
L 2.625 5.25 
L 5.25 2.625 
L 2.625 0 
L 5.25 -2.625 
L 2.625 -5.25 
L 0 -2.625 
L -2.625 -5.25 
L -5.25 -2.625 
L -2.625 0 
L -5.25 2.625 
z
" id="m6d1a018b79" style="stroke:#da0147;stroke-linejoin:miter;"/>
     </defs>
     <g>
      <use style="fill:#da0147;opacity:0.8;stroke:#da0147;stroke-linejoin:miter;" x="15.2" xlink:href="#m6d1a018b79" y="38.76375"/>
     </g>
    </g>
    <g id="text_20">
     <!-- Exterior -->
     <defs>
      <path d="M 54.890625 54.6875 
L 35.109375 28.078125 
L 55.90625 0 
L 45.3125 0 
L 29.390625 21.484375 
L 13.484375 0 
L 2.875 0 
L 24.125 28.609375 
L 4.6875 54.6875 
L 15.28125 54.6875 
L 29.78125 35.203125 
L 44.28125 54.6875 
z
" id="DejaVuSans-78"/>
     </defs>
     <g transform="translate(29.6 41.56375)scale(0.08 -0.08)">
      <use xlink:href="#DejaVuSans-45"/>
      <use x="63.183594" xlink:href="#DejaVuSans-78"/>
      <use x="122.363281" xlink:href="#DejaVuSans-74"/>
      <use x="161.572266" xlink:href="#DejaVuSans-65"/>
      <use x="223.095703" xlink:href="#DejaVuSans-72"/>
      <use x="264.208984" xlink:href="#DejaVuSans-69"/>
      <use x="291.992188" xlink:href="#DejaVuSans-6f"/>
      <use x="353.173828" xlink:href="#DejaVuSans-72"/>
     </g>
    </g>
    <g id="line2d_54">
     <path d="M 7.2 52.90625 
L 23.2 52.90625 
" style="fill:none;opacity:0.7;"/>
    </g>
    <g id="line2d_55">
     <defs>
      <path d="M 0 3.5 
C 0.928211 3.5 1.81853 3.131218 2.474874 2.474874 
C 3.131218 1.81853 3.5 0.928211 3.5 0 
C 3.5 -0.928211 3.131218 -1.81853 2.474874 -2.474874 
C 1.81853 -3.131218 0.928211 -3.5 0 -3.5 
C -0.928211 -3.5 -1.81853 -3.131218 -2.474874 -2.474874 
C -3.131218 -1.81853 -3.5 -0.928211 -3.5 0 
C -3.5 0.928211 -3.131218 1.81853 -2.474874 2.474874 
C -1.81853 3.131218 -0.928211 3.5 0 3.5 
z
" id="ma3f275e1dd" style="stroke:#d95f02;"/>
     </defs>
     <g>
      <use style="fill:#d95f02;opacity:0.7;stroke:#d95f02;" x="15.2" xlink:href="#ma3f275e1dd" y="52.90625"/>
     </g>
    </g>
    <g id="text_21">
     <!-- Dormitorio -->
     <g transform="translate(29.6 55.70625)scale(0.08 -0.08)">
      <use xlink:href="#DejaVuSans-44"/>
      <use x="77.001953" xlink:href="#DejaVuSans-6f"/>
      <use x="138.183594" xlink:href="#DejaVuSans-72"/>
      <use x="179.28125" xlink:href="#DejaVuSans-6d"/>
      <use x="276.693359" xlink:href="#DejaVuSans-69"/>
      <use x="304.476562" xlink:href="#DejaVuSans-74"/>
      <use x="343.685547" xlink:href="#DejaVuSans-6f"/>
      <use x="404.867188" xlink:href="#DejaVuSans-72"/>
      <use x="445.980469" xlink:href="#DejaVuSans-69"/>
      <use x="473.763672" xlink:href="#DejaVuSans-6f"/>
     </g>
    </g>
    <g id="line2d_56">
     <path d="M 7.2 67.04875 
L 23.2 67.04875 
" style="fill:none;opacity:0.7;"/>
    </g>
    <g id="line2d_57">
     <defs>
      <path d="M 0 3.5 
C 0.928211 3.5 1.81853 3.131218 2.474874 2.474874 
C 3.131218 1.81853 3.5 0.928211 3.5 0 
C 3.5 -0.928211 3.131218 -1.81853 2.474874 -2.474874 
C 1.81853 -3.131218 0.928211 -3.5 0 -3.5 
C -0.928211 -3.5 -1.81853 -3.131218 -2.474874 -2.474874 
C -3.131218 -1.81853 -3.5 -0.928211 -3.5 0 
C -3.5 0.928211 -3.131218 1.81853 -2.474874 2.474874 
C -1.81853 3.131218 -0.928211 3.5 0 3.5 
z
" id="m7d9e8c5861" style="stroke:#e7298a;"/>
     </defs>
     <g>
      <use style="fill:#e7298a;opacity:0.7;stroke:#e7298a;" x="15.2" xlink:href="#m7d9e8c5861" y="67.04875"/>
     </g>
    </g>
    <g id="text_22">
     <!-- Plancha -->
     <defs>
      <path d="M 19.671875 64.796875 
L 19.671875 37.40625 
L 32.078125 37.40625 
Q 38.96875 37.40625 42.71875 40.96875 
Q 46.484375 44.53125 46.484375 51.125 
Q 46.484375 57.671875 42.71875 61.234375 
Q 38.96875 64.796875 32.078125 64.796875 
z
M 9.8125 72.90625 
L 32.078125 72.90625 
Q 44.34375 72.90625 50.609375 67.359375 
Q 56.890625 61.8125 56.890625 51.125 
Q 56.890625 40.328125 50.609375 34.8125 
Q 44.34375 29.296875 32.078125 29.296875 
L 19.671875 29.296875 
L 19.671875 0 
L 9.8125 0 
z
" id="DejaVuSans-50"/>
      <path d="M 9.421875 75.984375 
L 18.40625 75.984375 
L 18.40625 0 
L 9.421875 0 
z
" id="DejaVuSans-6c"/>
     </defs>
     <g transform="translate(29.6 69.84875)scale(0.08 -0.08)">
      <use xlink:href="#DejaVuSans-50"/>
      <use x="60.302734" xlink:href="#DejaVuSans-6c"/>
      <use x="88.085938" xlink:href="#DejaVuSans-61"/>
      <use x="149.365234" xlink:href="#DejaVuSans-6e"/>
      <use x="212.744141" xlink:href="#DejaVuSans-63"/>
      <use x="267.724609" xlink:href="#DejaVuSans-68"/>
      <use x="331.103516" xlink:href="#DejaVuSans-61"/>
     </g>
    </g>
    <g id="line2d_58">
     <path d="M 7.2 81.19125 
L 23.2 81.19125 
" style="fill:none;opacity:0.7;"/>
    </g>
    <g id="line2d_59">
     <defs>
      <path d="M 0 3.5 
C 0.928211 3.5 1.81853 3.131218 2.474874 2.474874 
C 3.131218 1.81853 3.5 0.928211 3.5 0 
C 3.5 -0.928211 3.131218 -1.81853 2.474874 -2.474874 
C 1.81853 -3.131218 0.928211 -3.5 0 -3.5 
C -0.928211 -3.5 -1.81853 -3.131218 -2.474874 -2.474874 
C -3.131218 -1.81853 -3.5 -0.928211 -3.5 0 
C -3.5 0.928211 -3.131218 1.81853 -2.474874 2.474874 
C -1.81853 3.131218 -0.928211 3.5 0 3.5 
z
" id="m5c28e57b46" style="stroke:#1b9e77;"/>
     </defs>
     <g>
      <use style="fill:#1b9e77;opacity:0.7;stroke:#1b9e77;" x="15.2" xlink:href="#m5c28e57b46" y="81.19125"/>
     </g>
    </g>
    <g id="text_23">
     <!-- Cocina -->
     <g transform="translate(29.6 83.99125)scale(0.08 -0.08)">
      <use xlink:href="#DejaVuSans-43"/>
      <use x="69.824219" xlink:href="#DejaVuSans-6f"/>
      <use x="131.005859" xlink:href="#DejaVuSans-63"/>
      <use x="185.986328" xlink:href="#DejaVuSans-69"/>
      <use x="213.769531" xlink:href="#DejaVuSans-6e"/>
      <use x="277.148438" xlink:href="#DejaVuSans-61"/>
     </g>
    </g>
    <g id="line2d_60">
     <path d="M 7.2 95.33375 
L 23.2 95.33375 
" style="fill:none;opacity:0.7;"/>
    </g>
    <g id="line2d_61">
     <defs>
      <path d="M 0 3.5 
C 0.928211 3.5 1.81853 3.131218 2.474874 2.474874 
C 3.131218 1.81853 3.5 0.928211 3.5 0 
C 3.5 -0.928211 3.131218 -1.81853 2.474874 -2.474874 
C 1.81853 -3.131218 0.928211 -3.5 0 -3.5 
C -0.928211 -3.5 -1.81853 -3.131218 -2.474874 -2.474874 
C -3.131218 -1.81853 -3.5 -0.928211 -3.5 0 
C -3.5 0.928211 -3.131218 1.81853 -2.474874 2.474874 
C -1.81853 3.131218 -0.928211 3.5 0 3.5 
z
" id="m7077667db8" style="stroke:#66a61e;"/>
     </defs>
     <g>
      <use style="fill:#66a61e;opacity:0.7;stroke:#66a61e;" x="15.2" xlink:href="#m7077667db8" y="95.33375"/>
     </g>
    </g>
    <g id="text_24">
     <!-- Salón -->
     <defs>
      <path d="M 30.609375 48.390625 
Q 23.390625 48.390625 19.1875 42.75 
Q 14.984375 37.109375 14.984375 27.296875 
Q 14.984375 17.484375 19.15625 11.84375 
Q 23.34375 6.203125 30.609375 6.203125 
Q 37.796875 6.203125 41.984375 11.859375 
Q 46.1875 17.53125 46.1875 27.296875 
Q 46.1875 37.015625 41.984375 42.703125 
Q 37.796875 48.390625 30.609375 48.390625 
z
M 30.609375 56 
Q 42.328125 56 49.015625 48.375 
Q 55.71875 40.765625 55.71875 27.296875 
Q 55.71875 13.875 49.015625 6.21875 
Q 42.328125 -1.421875 30.609375 -1.421875 
Q 18.84375 -1.421875 12.171875 6.21875 
Q 5.515625 13.875 5.515625 27.296875 
Q 5.515625 40.765625 12.171875 48.375 
Q 18.84375 56 30.609375 56 
z
M 37.40625 79.984375 
L 47.125 79.984375 
L 31.21875 61.625 
L 23.734375 61.625 
z
" id="DejaVuSans-f3"/>
     </defs>
     <g transform="translate(29.6 98.13375)scale(0.08 -0.08)">
      <use xlink:href="#DejaVuSans-53"/>
      <use x="63.476562" xlink:href="#DejaVuSans-61"/>
      <use x="124.755859" xlink:href="#DejaVuSans-6c"/>
      <use x="152.539062" xlink:href="#DejaVuSans-f3"/>
      <use x="213.720703" xlink:href="#DejaVuSans-6e"/>
     </g>
    </g>
    <g id="line2d_62">
     <path d="M 7.2 109.47625 
L 23.2 109.47625 
" style="fill:none;opacity:0.8;"/>
    </g>
    <g id="line2d_63">
     <defs>
      <path d="M 0 -8.75 
L -1.964497 -2.703899 
L -8.321745 -2.703899 
L -3.178623 1.032797 
L -5.143121 7.078899 
L -0 3.342203 
L 5.143121 7.078899 
L 3.178623 1.032797 
L 8.321745 -2.703899 
L 1.964497 -2.703899 
z
" id="me2d63c9069" style="stroke:#008056;stroke-linejoin:bevel;"/>
     </defs>
     <g>
      <use style="fill:#008056;opacity:0.8;stroke:#008056;stroke-linejoin:bevel;" x="15.2" xlink:href="#me2d63c9069" y="109.47625"/>
     </g>
    </g>
    <g id="text_25">
     <!-- Interior -->
     <defs>
      <path d="M 9.8125 72.90625 
L 19.671875 72.90625 
L 19.671875 0 
L 9.8125 0 
z
" id="DejaVuSans-49"/>
     </defs>
     <g transform="translate(29.6 112.27625)scale(0.08 -0.08)">
      <use xlink:href="#DejaVuSans-49"/>
      <use x="29.492188" xlink:href="#DejaVuSans-6e"/>
      <use x="92.871094" xlink:href="#DejaVuSans-74"/>
      <use x="132.080078" xlink:href="#DejaVuSans-65"/>
      <use x="193.603516" xlink:href="#DejaVuSans-72"/>
      <use x="234.716797" xlink:href="#DejaVuSans-69"/>
      <use x="262.5" xlink:href="#DejaVuSans-6f"/>
      <use x="323.681641" xlink:href="#DejaVuSans-72"/>
     </g>
    </g>
   </g>
  </g>
 </g>
 <defs>
  <clipPath id="pd90dd21ab5">
   <rect height="504" width="864" x="0" y="0"/>
  </clipPath>
 </defs>
</svg>
